<svg xmlns="http://www.w3.org/2000/svg" viewBox="0 0 1255.68 676.85"><defs><style>.cls-1{isolation:isolate;}.cls-2{fill:#95c38b;}.cls-3,.cls-30{opacity:0.4;}.cls-4,.cls-6{fill:#9951f1;}.cls-5{fill:#5233a1;}.cls-11,.cls-6,.cls-7{opacity:0.25;}.cls-11,.cls-6{mix-blend-mode:multiply;}.cls-8{fill:#fff;}.cls-9{opacity:0.5;}.cls-10,.cls-11{fill:#ba88ff;}.cls-12{fill:#163560;}.cls-13{fill:#e49963;}.cls-14{fill:#4a75cb;}.cls-15{fill:#2b478b;}.cls-16{fill:#1c468a;}.cls-17{fill:#f15a24;}.cls-18{fill:#739af0;}.cls-19{fill:#d68d5d;}.cls-20{fill:#2e3552;}.cls-21{fill:#ed7d2b;}.cls-22{fill:#f4a269;}.cls-23{fill:#ffb27d;}.cls-24{fill:#c65447;}.cls-25{fill:#b5453c;}.cls-26{fill:#9e332e;}.cls-27,.cls-30{fill:#d86713;}.cls-28{fill:#f2f2f2;}.cls-29{fill:#f1a34f;}.cls-31{fill:#e4edf9;}.cls-32{fill:#afcdfb;}.cls-33{fill:#e9f3fe;}.cls-34{fill:#cae0ff;}.cls-35{fill:#d2e3fc;}.cls-36{fill:#78acea;}.cls-37{fill:#699dee;}.cls-38{fill:#a8d29f;}.cls-39{fill:#b7d5f9;}.cls-40{fill:lime;}.cls-41{fill:#233862;}.cls-42{fill:#213f7a;}.cls-43{fill:#e2915a;}.cls-44{fill:#f99746;}.cls-45{fill:#fca56b;}.cls-46{fill:#fafdff;}</style></defs><g class="cls-1"><g id="Layer_1" data-name="Layer 1"><path class="cls-2" d="M1102.93,707.05c-.34.09-.78.19-1.34.29C1102,707.23,1102.48,707.13,1102.93,707.05Z" transform="translate(-380.35 -211.53)"/><g class="cls-3"><path class="cls-4" d="M816.74,422.81c1.19-13-2.2-25.83-4-38.72s-1.13-27.41,7.69-37,27.89-9.35,32.54,2.82c2.35,6.15.46,13,.93,19.59s5.63,14.07,12,12.42c2.65-.69,4.67-2.85,6.25-5.09,15.26-21.78,0-51.18-.5-77.76-.18-10.72,3.83-23.3,14.11-26.34,15.92-4.71,26.45,16.09,30,32.33,13.91-1.37,14.12-21.32,12-35.13-3.6-23.29,3.28-53.66,26.45-58,20.52-3.82,38.59,18.76,37.07,39.58s-16.55,38.19-33,51.1c-5.1,4-10.63,8-13.2,14s-.54,14.44,5.7,16.22c3.81,1.08,7.84-.59,11.26-2.58,13.84-8,29.38-22.13,43.11-13.94,8.58,5.12,10.59,17.5,6.44,26.58s-12.9,15.24-22,19.39c-17.13,7.83-36.23,10-54.37,15s-36.64,14.19-45.46,30.83a131.29,131.29,0,0,0,42.49-3.54c8.79,16.88-7.56,36.75-25.22,43.85-31.8,12.76-67.77,4.11-101.9,7.19-.93.08-1.86.21-2.79.32A57.9,57.9,0,0,0,816.74,422.81Z" transform="translate(-380.35 -211.53)"/><path class="cls-5" d="M833.43,437.42l10.06-10.36-.1-.41c-2.43-10.22-4.54-20.46-6-30.86-.71-5.2-1.32-10.41-1.71-15.65a92.83,92.83,0,0,1,.17-15.73,129,129,0,0,0,1.93,15.49c.79,5.13,1.77,10.24,2.86,15.32,2,9.43,4.09,18.86,6.34,28.21l7.24-7.46c6.62-7.43,13.57-14.55,19.94-22.18s13-15,18.87-23.05c3-3.95,6.13-7.8,9-11.84l.34-.49c-2.13-11-4.08-22.08-5.49-33.23-.73-5.72-1.49-11.44-2-17.19s-.9-11.52-.83-17.29c1.6,11.41,3.73,22.69,5.87,34l5.76,29,4.86-6.95a408.94,408.94,0,0,0,30.28-51.14,289.26,289.26,0,0,0,11.93-27.25,183.91,183.91,0,0,0,8.81-28.47C959,259.68,951.94,278.7,943.83,297c-8.27,18.26-18.62,35.5-29.72,52.15l-5.27,7.35c5.24-.39,10.49-.81,15.7-1.55,6.66-.8,13.28-1.9,19.88-3.13s13.18-2.66,19.69-4.35,13-3.45,19.48-5.53a163.09,163.09,0,0,1-18.86,7.63c-6.45,2.11-13,4-19.59,5.62a224.54,224.54,0,0,1-39.5,5.77l-.28.4c-3,4-6.18,7.87-9.26,11.82-6.07,8-12.78,15.39-19.46,22.83s-13.95,14.31-20.91,21.47c-2.56,2.34-5.17,4.61-7.74,6.94a124.93,124.93,0,0,0,12.8,1.4c5.05.36,10.13.45,15.23.64s10.19.18,15.3.18l15.36.14a270.83,270.83,0,0,1-30.63,2.92c-5.14.28-10.29.26-15.45.12A100,100,0,0,1,845,428.22l-1.08-.21C840.44,431.15,837,434.33,833.43,437.42Z" transform="translate(-380.35 -211.53)"/><path class="cls-6" d="M935.21,377.32c18.14-5.06,37.24-7.19,54.37-15,9.08-4.15,17.83-10.3,22-19.39a23.79,23.79,0,0,0,2.06-10.49c-62.94,35.16-106.08,37.08-135.1,27a37.15,37.15,0,0,1-6.39,17.39c-1.58,2.24-3.6,4.4-6.25,5.09-6.37,1.65-11.53-5.85-12-12.42s1.42-13.44-.93-19.59c-4.64-12.16-23.72-12.4-32.54-2.82s-9.51,24.1-7.69,37,5.22,25.75,4,38.72A57.9,57.9,0,0,1,802.33,456c.93-.11,1.86-.24,2.79-.32,34.13-3.08,70.1,5.57,101.9-7.19,17.66-7.1,34-27,25.22-43.85a131.29,131.29,0,0,1-42.49,3.54C898.57,391.51,917.07,382.37,935.21,377.32Z" transform="translate(-380.35 -211.53)"/><g class="cls-7"><path class="cls-8" d="M968.69,281.18a1.41,1.41,0,0,1-1-2.39c18.41-19.06,13.77-36.2,6.65-47.23A1.4,1.4,0,0,1,976.7,230c6.28,9.72,13.73,29.24-7,50.71A1.41,1.41,0,0,1,968.69,281.18Z" transform="translate(-380.35 -211.53)"/><path class="cls-8" d="M971.62,227a1.36,1.36,0,0,1-1.06-.49,33.69,33.69,0,0,0-2.79-2.92,1.4,1.4,0,0,1,1.85-2.11,35,35,0,0,1,3.07,3.2,1.41,1.41,0,0,1-1.07,2.32Z" transform="translate(-380.35 -211.53)"/></g><g class="cls-7"><path class="cls-8" d="M1007.79,330a1.41,1.41,0,0,1-1.33-1,11,11,0,0,0-9.91-8,1.41,1.41,0,0,1,.31-2.8,13.87,13.87,0,0,1,12.26,9.87,1.4,1.4,0,0,1-1.33,1.86Z" transform="translate(-380.35 -211.53)"/><path class="cls-8" d="M989.77,321.55a1.4,1.4,0,0,1-.4-2.75,17.23,17.23,0,0,1,2.43-.47,1.4,1.4,0,0,1,1.58,1.21,1.41,1.41,0,0,1-1.21,1.58,15.45,15.45,0,0,0-2,.38A1.28,1.28,0,0,1,989.77,321.55Z" transform="translate(-380.35 -211.53)"/></g></g><g class="cls-9"><path class="cls-10" d="M1079.46,344.68c2.24,6.26-.78,13.39-7.41,17.53-3.33,2.07-7.44,3.43-10.35,5.84-10.22,8.49-.43,24.77-12.13,32.1-9.06,5.68-25.29,1.62-32.67,8.53-5.57,5.21-2.17,13.44-6.85,19.13-5.1,6.22-16.66,6.44-26.21,7.83a67,67,0,0,0-24.59,8.54c-2.6,1.56-5.07,3.32-8.12,4.3s-7,1-9.37-.71c-3-2.16-2.38-6.07,0-8.64s6.09-4.27,9.23-6.34c5.54-3.66,9.49-8.67,11.08-14.09,1.2-4.08,1.1-8.32,2.13-12.43a14.89,14.89,0,0,1,8.3-10.44c5.19-2.27,12-1.62,17.18-3.85,7.85-3.35,8.94-11.33,9.65-18.09s3.43-14.88,12.11-16.75c4.27-.92,9,0,13.16-1.26,7.25-2.24,8.28-9.52,12.76-14.35,7.29-7.86,22.35-8.14,35.08-7.62" transform="translate(-380.35 -211.53)"/><path class="cls-4" d="M948.74,441.81c5.34-3.48,10.67-7,15.84-10.56s10.42-7.15,15.52-10.8c10.21-7.31,20.26-14.74,29.9-22.46,9.8-7.61,19-15.62,28-23.74,4.41-4.13,8.88-8.23,13-12.53,4.39-4.16,8.13-8.65,12.26-13a240.32,240.32,0,0,1-23.65,26.45c-8.74,8.36-18,16.41-27.72,24.15s-19.9,15.12-30.43,22.21S960.11,435.5,948.74,441.81Z" transform="translate(-380.35 -211.53)"/><path class="cls-11" d="M989.71,392c-5.23,2.23-12,1.58-17.18,3.85a14.89,14.89,0,0,0-8.3,10.44c-.25,1-.43,2-.58,3,18.13-9.82,38-15.91,54.57-14.69,8.91.66,17.24,3.92,24.5,8.12a20.88,20.88,0,0,0,6.85-2.56c11.7-7.33,1.91-23.61,12.13-32.1,2.91-2.41,7-3.77,10.35-5.84,6.63-4.14,9.65-11.27,7.41-17.53l-7-10.77c-12.73-.52-27.79-.24-35.08,7.62-4.48,4.83-5.51,12.11-12.76,14.35-4.11,1.27-8.89.34-13.16,1.26-8.68,1.87-11.41,10-12.11,16.75S997.56,388.63,989.71,392Z" transform="translate(-380.35 -211.53)"/><g class="cls-7"><path class="cls-8" d="M951.9,434.84a.8.8,0,0,1,.57.21.46.46,0,0,1-.13.76q-.78.44-1.62.87a.89.89,0,0,1-1-.14.46.46,0,0,1,.19-.75c.54-.27,1.05-.55,1.55-.84A.92.92,0,0,1,951.9,434.84Z" transform="translate(-380.35 -211.53)"/><path class="cls-8" d="M966.73,413.45a.64.64,0,0,1,.71.52c0,.46.31,11.36-12.14,20a.87.87,0,0,1-1,0,.45.45,0,0,1,.05-.75c12-8.3,11.68-19.05,11.68-19.16,0-.3.3-.54.69-.55Z" transform="translate(-380.35 -211.53)"/></g></g><g class="cls-3"><path class="cls-10" d="M408.21,356.49c1.51,16.6,1,34.72,14.16,47.86,13.07,13,37.21,18.21,46.89,32.87,6.44,9.75,4.86,21.45,8.49,32,4.18,12.23,15.74,22.82,30.63,28.06,17.84,6.28,40.13,5.39,54.72,15.51,9.34,6.48,13.73,16.41,23.12,22.83,10,6.82,24.06,8.65,37.37,9.12s26.95-.09,39.64,3.06,24.54,11.22,25.25,21.51c3.54-15.35-2-31.82-14.8-43.89-9.29-8.75-22.31-15.49-28-25.91-7.42-13.47-1.31-30.85-13.46-42.08-14.84-13.72-47.53-9.12-60.5-23.93-7.81-8.92-4.86-21.37-11.64-30.77-8.16-11.31-27.16-14.42-43.88-15.2s-35.07-.84-47.8-9.26c-4.75-3.15-8.22-7.16-11.44-11.34-2.4-3.11-4.67-6.3-7.24-9.3-26.18-35-69.32-43.39-69.32-43.39C400.07,320.93,406.69,339.89,408.21,356.49Z" transform="translate(-380.35 -211.53)"/><path class="cls-4" d="M629.38,522.94q-27.09-20-53.65-40.16l-13.2-10.17c-4.39-3.39-8.81-6.76-13.09-10.24s-8.74-6.8-13-10.29l-12.79-10.44c-4.29-3.46-8.43-7-12.65-10.54l-6.29-5.29-6.14-5.4c-4.08-3.6-8.34-7.09-12.28-10.78s-8-7.34-12-11a623.55,623.55,0,0,1-44.49-46.18c10.69,17.46,24.36,33.81,39.19,49.4s31.39,30.16,48.38,44.34q25.78,21.06,53.78,40.36C589.8,499.39,609,511.74,629.38,522.94Z" transform="translate(-380.35 -211.53)"/><path class="cls-11" d="M524.27,501.32a109.92,109.92,0,0,1-15.89-4c-14.89-5.24-26.45-15.83-30.63-28.06-3.63-10.58-2.05-22.28-8.49-32-9.68-14.66-33.82-19.89-46.89-32.87-13.21-13.14-12.65-31.27-14.16-47.86s-8.14-35.56-27.86-42.22c0,0,43.14,8.42,69.32,43.39,2.57,3,4.84,6.19,7.24,9.3,3.22,4.18,6.69,8.19,11.44,11.34,12.73,8.42,31.09,8.48,47.8,9.26s35.72,3.89,43.88,15.2a21.79,21.79,0,0,1,1.72,2.87C520.9,428.43,510.23,462.31,524.27,501.32Z" transform="translate(-380.35 -211.53)"/><g class="cls-7"><path class="cls-8" d="M543.41,494.14v.05c-.16.6.34,1.19,1.13,1.31,24.76,3.84,33.72,15,41.63,24.89a73.64,73.64,0,0,0,9.34,10.28,27.47,27.47,0,0,0,10.37,5.25,1.6,1.6,0,0,0,1.85-.65c.29-.56-.09-1.22-.84-1.43a24.66,24.66,0,0,1-9.24-4.66,73,73,0,0,1-9-10c-8.22-10.25-17.53-21.87-43.52-25.91A1.51,1.51,0,0,0,543.41,494.14Z" transform="translate(-380.35 -211.53)"/><path class="cls-8" d="M615.2,536.42a.35.35,0,0,0,0,.14c-.09.61.47,1.16,1.26,1.23,2.35.21,4.86.31,7.47.32a1.35,1.35,0,0,0,1.45-1.11,1.31,1.31,0,0,0-1.44-1.12c-2.51,0-4.91-.1-7.15-.3A1.45,1.45,0,0,0,615.2,536.42Z" transform="translate(-380.35 -211.53)"/></g></g><path class="cls-12" d="M610.87,872s1,15.29,3.9,15.51c.4,0,15,0,15,0l18.65-.11s-.12-4.5-5.57-5.45-14.57-4.78-17.88-12C621.5,862.45,610.87,872,610.87,872Z" transform="translate(-380.35 -211.53)"/><path class="cls-13" d="M604.15,693.61s8.12,2.09,13.28.53,14.06,1,15.49,2.89.9,2.63-1.65,3.28-11.6,4.51-17.55,2.27-13.7-2.31-13.7-2.31Z" transform="translate(-380.35 -211.53)"/><path class="cls-14" d="M533.93,623s9.13,64.87,24.24,70.68c7.46,2.86,40.41,9.36,50.16,10,0,0,2.39-1.93,1.81-9.82,0,0-34.53-12.67-39.43-19.57-7.3-10.26,4.53-41.91-4.63-51.55S541.49,609,533.93,623Z" transform="translate(-380.35 -211.53)"/><rect class="cls-15" x="535.1" y="769.76" width="12.62" height="110.46" rx="5.71" transform="translate(702.47 1438.46) rotate(-180)"/><path class="cls-15" d="M502.46,887.48c4.08-8.45,20-14.75,38.95-14.75s34.86,6.3,39,14.75Z" transform="translate(-380.35 -211.53)"/><path class="cls-15" d="M513.76,854.38h55.31a2,2,0,0,1,2,2v.42a2,2,0,0,1-2,2H513.76a2,2,0,0,1-2-2v-.42a2,2,0,0,1,2-2Z" transform="translate(702.47 1501.68) rotate(-180)"/><path class="cls-12" d="M537,759.7a113.69,113.69,0,0,0,8.91,12.75c9.81,12.39,20.49,22.6,22.35,32.25a44.69,44.69,0,0,0,1.72,6.17c.78,2.22,1.74,4.54,2.85,6.94,4.16,9,10.39,19.18,16.6,28.38,10.75,15.92,20.85,29.21,20.85,29.21l18.53-.79c-.75-1.86-8.83-23.84-19.64-50.7-4.39-10.91-9-22.51-13.56-33.69l-1.79-4.46c-1.38-3.42-2.73-6.79-4.06-10.07l-18.23-45.31S531,715,526.76,725C523.28,733.18,526.11,741.22,537,759.7Z" transform="translate(-380.35 -211.53)"/><path class="cls-12" d="M568,828.35s-12.89,8.28-11.64,11c.17.36,7.29,13.12,7.29,13.12l9.18,16.23s3.87-2.3,2-7.52-2.93-15.06,1.75-21.46C581.51,833,568,828.35,568,828.35Z" transform="translate(-380.35 -211.53)"/><path class="cls-16" d="M586.11,723.54s50.21,31.26,55.9,52.58-67.74,66.79-67.74,66.79-8-7.11-9.47-12.32c0,0,33.18-39.76,40.38-48.67,4.42-5.47-65.37-18.95-73.9-32.21s-5.47-24.42-5.47-24.42Z" transform="translate(-380.35 -211.53)"/><rect class="cls-17" x="485.51" y="763.81" width="111.79" height="28.42" rx="7.78" transform="translate(702.47 1344.52) rotate(180)"/><path class="cls-13" d="M561.86,611.92a28.7,28.7,0,0,1,7.75,7c-12.2,3.16-32.42-8.15-32.42-8.15S545,605.53,548,593.94c.15-.59.28-1.19.4-1.8a36.62,36.62,0,0,0,.66-6.35l5.61,5,9.31,8.35a80.42,80.42,0,0,1-1.37,9.42C562.35,609.62,562.12,610.74,561.86,611.92Z" transform="translate(-380.35 -211.53)"/><path class="cls-18" d="M524.27,669.52c1.75,23.5-.55,59.25,1.43,65.44,1.71,5.34,21.21,2.16,29,.38,2.88-.66,6.37-1.6,10-2.72,10.05-3.11,21-7.55,22.17-10.85a2,2,0,0,0,.11-.38,3.06,3.06,0,0,0,0-1.38c-.39-1.69-1.9-3.5-2.08-7.67-.2-4.65-.17-10.12-.34-16,0-.67,0-1.39-.09-2.05v-.24c0-.13,0-.25,0-.38-.16-6.56-.51-13.46-.9-20.31-.26-4.29-.55-8.55-.89-12.63-.87-10.53-2.06-19.89-3.62-25.81-2.55-9.65-8.19-15.94-13.31-20.55L562,611.19a21.53,21.53,0,0,1-13.46-1.79c-4.79-2.28-6.44-3.91-7.27-3.29C530.17,614.64,522.21,640.79,524.27,669.52Z" transform="translate(-380.35 -211.53)"/><path class="cls-14" d="M564.66,732.62c10.05-3.11,21-7.55,22.17-10.85a2,2,0,0,0,.11-.38c0-.46,0-.92,0-1.38-.39-1.69-1.9-3.5-2.08-7.67-.2-4.65-.17-10.12-.34-16,0-.67,0-1.39-.09-2.05v-.24c0-.13,0-.25,0-.38l-37.95-17.21S544.25,707.05,564.66,732.62Z" transform="translate(-380.35 -211.53)"/><path class="cls-19" d="M563.93,599.16a80.42,80.42,0,0,1-1.37,9.42c-9.1-2.94-13.23-11.16-14.61-14.64-.39-1-.56-1.6-.56-1.6l1-.2,6.27-1.33Z" transform="translate(-380.35 -211.53)"/><path class="cls-13" d="M567.62,599.07s-20,2.25-21.2-10.22-4.61-20.58,8.1-22.55,15.66,2.55,17.07,6.62S572.79,598.16,567.62,599.07Z" transform="translate(-380.35 -211.53)"/><path class="cls-15" d="M546.5,589.71s1.27-16.55,19.47-18.27c12.46-1.17,5.51-11.9,4.18-13.61,0,0-9.55,1.31-19.34,2.93C530.27,564.15,544.48,587.13,546.5,589.71Z" transform="translate(-380.35 -211.53)"/><rect class="cls-14" x="650.67" y="663.15" width="1.84" height="48.18" transform="translate(678.68 1330.62) rotate(-162.01)"/><rect class="cls-14" x="594.5" y="706.87" width="50.56" height="3.02" transform="translate(843.93 1218.32) rotate(-178.78)"/><path class="cls-13" d="M600,703.59s7.84,3,13.14,2,13.86,2.54,15.08,4.57.61,2.72-2,3.08-12,3.2-17.7.33-13.36-3.81-13.36-3.81Z" transform="translate(-380.35 -211.53)"/><path class="cls-18" d="M538,625.7s1.92,65.48,16.3,72.92c7.1,3.67,39.13,13.76,48.75,15.49,0,0,2.59-1.67,2.88-9.57,0,0-32.92-16.4-37-23.79-6.12-11,9.13-41.16,1.09-51.75S547,612.6,538,625.7Z" transform="translate(-380.35 -211.53)"/><rect class="cls-20" x="14.45" y="673.56" width="1241.23" height="3.29" rx="1.49"/><path class="cls-17" d="M1403.8,859.34c3.5,13.1,29.4,20.81,57.73,25.34h105.71c25.48-12.48,25.44-27.36,27.49-68.45,4.22-84.86-40.42-125.82-60.33-119.06-.82.28-1.67.59-2.52.93-5.79,2.33-12.27,6.44-18.57,16.22,0,0-19.79,33-36.07,52.65-5.24,6.33-10.12,11.29-13.86,13.32l-.13.07c-.2.1-.39.2-.58.28-8.63,4-20.79,12.23-31.9,22.67h0C1413.54,819.5,1398.86,840.88,1403.8,859.34Z" transform="translate(-380.35 -211.53)"/><path class="cls-21" d="M1430.77,803.31c14.82,4.56,91.11,26.58,109.06,3.23,13-16.91,4.91-60.23-2.27-88.26A13.26,13.26,0,0,0,1513.5,714l-.19.29s-19.79,33-36.07,52.65c-4.71,6.21-9.36,11-13.86,13.32l-.13.07c-.19.1-.39.2-.58.28C1454,784.59,1441.88,792.87,1430.77,803.31Z" transform="translate(-380.35 -211.53)"/><path class="cls-22" d="M1487.52,696.26s-5.29,7.83-8.3,24.27c-2.65,14.4-5,19.72-8.77,22.67s-25.06,11.68-25.06,11.68l1.58,3.72s31.15-4.24,34.64-9.45,16.84-35.95,15.8-43S1487.52,696.26,1487.52,696.26Z" transform="translate(-380.35 -211.53)"/><path class="cls-23" d="M1411.26,868.05c.28,3-4,3.78-8.85,4s-3.41,1.25-10.12,2.47-9.41-.63-9.89-1.53,2.69-2.07,6-3.49l1.26-.54c3.74-1.65,5.84-5,8.76-8.11,2.76-3,5.39-12.39,5.39-12.39l9.12-2s-2.56,8.5-3.45,12.12c-.53,2.14.25,4.52.93,6.34A11.86,11.86,0,0,1,1411.26,868.05Z" transform="translate(-380.35 -211.53)"/><path class="cls-24" d="M1402.41,872.07c-4.89.25-3.41,1.25-10.12,2.47s-9.41-.63-9.89-1.53,2.69-2.07,6-3.49l0,.06a19.14,19.14,0,0,0,10.17.12c4.44-1.2,8.73-3.86,11.79-4.71a11.86,11.86,0,0,1,.84,3.06C1411.54,871.09,1407.31,871.83,1402.41,872.07Z" transform="translate(-380.35 -211.53)"/><path class="cls-12" d="M1502.08,759.91s-60.61-4.56-72,2.64-29.7,91.07-29.7,91.07a7.52,7.52,0,0,0,3.65,1.18c2.35.25,7.51-1.13,7.51-1.13s26.3-37.53,28.15-47,1.4-17.89,5.62-18.12S1502.08,795,1510,781s1.38-27.89,1.38-27.89Z" transform="translate(-380.35 -211.53)"/><path class="cls-23" d="M1434.45,877.79c.28,3-4,3.77-8.85,4s-3.41,1.24-10.12,2.46-9.41-.62-9.89-1.53,2.69-2.06,6-3.48l1.26-.55c3.74-1.64,5.84-5,8.76-8.11,2.76-3,5.39-12.39,5.39-12.39l9.12-1.94s-2.57,8.49-3.45,12.12c-.53,2.13.24,4.51.93,6.33A12,12,0,0,1,1434.45,877.79Z" transform="translate(-380.35 -211.53)"/><path class="cls-24" d="M1425.6,881.81c-4.89.24-3.41,1.24-10.12,2.46s-9.41-.62-9.89-1.53,2.69-2.06,6-3.48l.05,0a19,19,0,0,0,10.17.12c4.44-1.2,8.73-3.85,11.79-4.71a12,12,0,0,1,.84,3.07C1434.73,880.82,1430.5,881.56,1425.6,881.81Z" transform="translate(-380.35 -211.53)"/><path class="cls-16" d="M1514,763.66s-53.84,2.55-65,10.19S1422.85,866,1422.85,866a7.41,7.41,0,0,0,3.7,1c2.35.17,7.46-1.41,7.46-1.41s24.81-38.53,26.3-48,.7-17.93,4.91-18.32,57,4.17,64.4-10.14S1514,763.66,1514,763.66Z" transform="translate(-380.35 -211.53)"/><path class="cls-25" d="M1495.51,692c-1-1.84-2.29-5.13-3.19-11.1.12.59,1.65,8.09,4.85,12.18,12.47,7,37.11,31.71,37,36.7,0,0,7.15-14.22,7.29-14.31s13.61-19.91-4.74-29.57c-9.33-4.91-9.76-12-9.79-18.15s-4.62-32.41-22.11-24.3c0,0-3-1.09-4.24-.81a3.54,3.54,0,0,1,1.64.65,14.08,14.08,0,0,0-7.45,1.94C1488.43,649.37,1484.78,683.32,1495.51,692Z" transform="translate(-380.35 -211.53)"/><path class="cls-23" d="M1516.21,687.25a61.45,61.45,0,0,0-10,0,32.22,32.22,0,0,0-8.7,2.19c-4.74,2-4.25,10.38,5.71,8.82S1516.91,689.74,1516.21,687.25Z" transform="translate(-380.35 -211.53)"/><path class="cls-23" d="M1497.9,693.38c-.06,0-1.42,7.23,5.1,6.94,4.28-.19,13.51-5.37,12.69-9-.38-1.74-3.62-6.26-4.27-16.58l-.78.21-13.1,3.51s.59,4.16.86,8.1C1498.63,689.83,1498.63,693,1497.9,693.38Z" transform="translate(-380.35 -211.53)"/><path class="cls-22" d="M1497.54,678.43s.59,4.16.86,8.1c7.41-.71,10.88-7.75,12.24-11.61Z" transform="translate(-380.35 -211.53)"/><path class="cls-25" d="M1511.92,673.38s3.48-6.41,4.06-11.73c.42-3.8-2.42-17.59-16.27-14.65a19,19,0,0,0-7.68,3.5c-2.9,2.26-7,7-1.28,18.8l1.55,4Z" transform="translate(-380.35 -211.53)"/><path class="cls-23" d="M1495.31,682.33s17.6-.89,16.88-11.83,1.07-18.44-10.2-18.34-13.17,4.42-13.81,8.13S1490.72,682.27,1495.31,682.33Z" transform="translate(-380.35 -211.53)"/><path class="cls-25" d="M1494,652.43s5.67,12.52,13.18,13.93,10.58-.79,10.58-.79a21,21,0,0,1-7.66-11.9S1497.19,646.07,1494,652.43Z" transform="translate(-380.35 -211.53)"/><path class="cls-25" d="M1495.23,653.39s-3.4,3.11-4.09,6-.7,8.61-2.39,8.53c0,0-4.2-8.49-.46-13.7C1492.26,648.65,1495.23,653.39,1495.23,653.39Z" transform="translate(-380.35 -211.53)"/><path class="cls-16" d="M1477.71,760.82c1.42,1.7,5.87,2.23,10.62,3,3.74.62,7.67,1.39,10.46,3,6.34,3.72,27.06,16.31,33.13,15.74,2.36-.23,1.92-4.72.49-10.69-2.24-9.41-6.94-22.49-6.94-28.18,0-3.1-1-10.45-2.41-18.85-.12-.67-.23-1.36-.35-2-2.72-16.32-6.5-35.58-6.5-35.58s-4.22,9.2-12.43,9.2-6.3-7-6.3-7-7.49.88-9.26,2.79-6.26,10.14-7.15,12.39c0,0-.18,2.86,6.9,4.22a92.08,92.08,0,0,0-1.93,12.94c-.15,3.82,2.61,15.79,3.4,23.23.28,2.63.32,4.7-.11,5.64-.55,1.2-2.32,2.4-4.33,3.58C1481,756.56,1476,758.8,1477.71,760.82Z" transform="translate(-380.35 -211.53)"/><path class="cls-12" d="M1485,754.23c-4.55,7.74,12.32,10.07,15.11,11.71,6.35,3.73,25.74,17.23,31.81,16.66,2.36-.23,1.92-4.72.49-10.69-2.24-9.41-6.94-22.49-6.94-28.18,0-3.1-1-10.45-2.41-18.85l-7.31-7s-7.84,20.25-15.3,23.57a63.75,63.75,0,0,1-11,3.58c.28,2.63.32,4.7-.11,5.64C1488.78,751.85,1487,753.05,1485,754.23Z" transform="translate(-380.35 -211.53)"/><path class="cls-23" d="M1518.45,693.31s6.26-3.79,12.3,3.41-4.3,58.67-13.25,61.32c-10,2.93-38.68-.48-38.68-.48l.55-4.49s30.59-5.86,31.86-7.49S1515.28,694.14,1518.45,693.31Z" transform="translate(-380.35 -211.53)"/><path class="cls-16" d="M1516.21,687.25s12.83,1.16,16.56,5.38,4.82,15.67,4.82,15.67-11.3,9.12-24.92,5.58Z" transform="translate(-380.35 -211.53)"/><rect class="cls-26" x="1458.86" y="759.97" width="16.95" height="2" transform="translate(2554.33 1310.42) rotate(180)"/><path class="cls-26" d="M1462.47,761.7c-.17-.66-15.59-24.88-15.59-24.88h-34.31l17.21,24.23Z" transform="translate(-380.35 -211.53)"/><path class="cls-25" d="M1461,762c-.16-.66-15.63-25.15-15.63-25.15h-32.82L1428.94,762Z" transform="translate(-380.35 -211.53)"/><path class="cls-26" d="M1432.09,749.48a2.75,2.75,0,0,0,2.39,1.78,1.23,1.23,0,0,0,1.17-1.78,2.75,2.75,0,0,0-2.39-1.78A1.23,1.23,0,0,0,1432.09,749.48Z" transform="translate(-380.35 -211.53)"/><path class="cls-23" d="M1481.87,752.81s-10-1.93-11.08-1.45-7.39,6.11-6.75,7.23,3.21,1.93,6.1,1,9.16-1.44,10.28-2.89A9.35,9.35,0,0,0,1481.87,752.81Z" transform="translate(-380.35 -211.53)"/><path class="cls-27" d="M896.85,591.12,873.41,869.84s-2.46,16.89,10.11,16.92c20.66,0,102.85,0,102.85,0s-15.56-3.52-15.37-11.43c.22-9.33,27.4-286.85,27.4-286.85Z" transform="translate(-380.35 -211.53)"/><path class="cls-17" d="M993,881.71c-4.06,0-82.56.25-102.68,0-8.77-.11-10.31-7.8-10.38-12.78a25.58,25.58,0,0,1,.27-4.15l.61-7.24,1.55-18.46,1.37-16.32,1.77-21L887,784.11l16.66-198.05,101.55-2.63s-11.45,116.14-19.54,200.68c-.91,9.42-1.76,18.45-2.56,26.88-.26,2.69-.5,5.32-.75,7.89-.75,8-1.43,15.34-2,21.83-.32,3.41-.61,6.59-.87,9.5-1,11.4-1.64,18.68-1.64,20.07a11.51,11.51,0,0,0,.19,2.25C979.7,881.41,991.51,881.71,993,881.71Z" transform="translate(-380.35 -211.53)"/><polygon class="cls-28" points="269.87 227.93 326.97 457.27 334.79 488.69 361.38 595.51 855.44 595.51 757.42 227.93 269.87 227.93"/><polygon class="cls-28" points="269.87 227.93 261.96 230.56 350.86 603.49 361.38 595.51 269.87 227.93"/><polygon class="cls-27" points="350.86 603.49 841.88 603.49 855.44 595.51 361.38 595.51 350.86 603.49"/><rect class="cls-28" x="903.64" y="881.82" width="106.31" height="5.05" transform="translate(1533.25 1557.16) rotate(180)"/><polygon class="cls-29" points="831.51 527.78 751.34 232.78 271.08 232.78 269.87 227.93 757.42 227.93 837.32 527.12 831.51 527.78"/><polygon class="cls-28" points="602.58 603.49 602.03 607.35 502.05 627.55 503.42 611.24 504.07 603.49 602.58 603.49"/><path class="cls-30" d="M993,881.71c-4.06,0-82.56.25-102.68,0-8.77-.11-10.31-7.8-10.38-12.78l99.51-18.72c-1,11.4-1.64,18.68-1.64,20.07a11.51,11.51,0,0,0,.19,2.25C979.7,881.41,991.51,881.71,993,881.71Z" transform="translate(-380.35 -211.53)"/><polygon class="cls-17" points="578.41 521.1 361.38 595.51 334.79 488.69 578.41 521.1"/><polygon class="cls-17" points="269.87 227.93 757.42 227.93 836.53 523.35 343.42 523.35 269.87 227.93"/><ellipse class="cls-27" cx="988.74" cy="772.22" rx="11.91" ry="14.46" transform="translate(-627.92 773.94) rotate(-47.78)"/><polygon class="cls-31" points="813.53 510.55 357.04 510.55 305.34 304.6 301.38 288.81 298 275.34 290.07 243.75 739.99 243.75 748.69 275.34 752.4 288.81 756.76 304.6 813.53 510.55"/><polygon class="cls-32" points="748.69 275.34 298 275.34 290.07 243.75 739.99 243.75 748.69 275.34"/><path class="cls-33" d="M689,469.55a3,3,0,0,1,3-3.95,5.39,5.39,0,0,1,4.93,3.95,3,3,0,0,1-3,3.95A5.4,5.4,0,0,1,689,469.55Z" transform="translate(-380.35 -211.53)"/><path class="cls-33" d="M702.15,469.55a3,3,0,0,1,3-3.95,5.39,5.39,0,0,1,4.93,3.95,3,3,0,0,1-3,3.95A5.4,5.4,0,0,1,702.15,469.55Z" transform="translate(-380.35 -211.53)"/><path class="cls-33" d="M716.28,469.55a3,3,0,0,1,3-3.95,5.41,5.41,0,0,1,4.94,3.95,3,3,0,0,1-3,3.95A5.39,5.39,0,0,1,716.28,469.55Z" transform="translate(-380.35 -211.53)"/><polygon class="cls-34" points="712.97 492.27 374.83 492.27 323.38 290.33 656.75 290.33 712.97 492.27"/><polygon class="cls-35" points="756.7 337.32 680.06 337.32 666.05 290.33 743.62 290.33 756.7 337.32"/><polygon class="cls-16" points="549.94 310 506.1 310 504.29 303.24 548.14 303.24 549.94 310"/><polygon class="cls-36" points="627.69 310 555.95 310 554.15 303.24 625.88 303.24 627.69 310"/><polygon class="cls-36" points="557.31 328.22 479.55 328.22 477.74 321.46 555.51 321.46 557.31 328.22"/><polygon class="cls-17" points="604.62 328.22 564.31 328.22 562.5 321.46 602.81 321.46 604.62 328.22"/><polygon class="cls-37" points="563.18 359.58 519.33 359.58 517.52 352.82 561.37 352.82 563.18 359.58"/><polygon class="cls-36" points="640.92 359.58 569.19 359.58 567.38 352.82 639.12 352.82 640.92 359.58"/><polygon class="cls-8" points="570.55 377.79 492.78 377.79 490.98 371.03 568.74 371.03 570.55 377.79"/><polygon class="cls-8" points="617.85 377.79 577.54 377.79 575.74 371.03 616.05 371.03 617.85 377.79"/><polygon class="cls-16" points="523.46 405.99 375.1 405.99 373.3 399.23 521.65 399.23 523.46 405.99"/><polygon class="cls-37" points="576.79 405.99 532.94 405.99 531.14 399.23 574.99 399.23 576.79 405.99"/><polygon class="cls-36" points="654.54 405.99 582.8 405.99 581 399.23 652.73 399.23 654.54 405.99"/><polygon class="cls-8" points="423.81 424.2 379.97 424.2 378.16 417.44 422.01 417.44 423.81 424.2"/><polygon class="cls-17" points="584.16 424.2 506.4 424.2 504.59 417.44 582.36 417.44 584.16 424.2"/><polygon class="cls-36" points="501.56 424.2 429.82 424.2 428.02 417.44 499.76 417.44 501.56 424.2"/><polygon class="cls-36" points="631.47 424.2 591.16 424.2 589.35 417.44 629.66 417.44 631.47 424.2"/><polygon class="cls-16" points="540.3 456.28 391.95 456.28 390.14 449.52 538.5 449.52 540.3 456.28"/><polygon class="cls-37" points="593.63 456.28 549.78 456.28 547.98 449.52 591.83 449.52 593.63 456.28"/><polygon class="cls-8" points="440.66 474.49 396.81 474.49 395 467.73 438.85 467.73 440.66 474.49"/><polygon class="cls-17" points="601 474.49 523.24 474.49 521.43 467.73 599.2 467.73 601 474.49"/><polygon class="cls-36" points="518.4 474.49 446.67 474.49 444.86 467.73 516.6 467.73 518.4 474.49"/><polygon class="cls-36" points="648.31 474.49 608 474.49 606.2 467.73 646.5 467.73 648.31 474.49"/><polygon class="cls-36" points="718.55 351.86 684.82 351.96 684.08 348.9 717.8 348.8 718.55 351.86"/><polygon class="cls-36" points="736.34 351.8 723.65 351.84 722.91 348.78 735.59 348.74 736.34 351.8"/><polygon class="cls-36" points="762.04 351.73 739.63 351.79 738.88 348.73 761.29 348.66 762.04 351.73"/><polygon class="cls-36" points="705.2 359.65 686.71 359.71 685.96 356.64 704.45 356.59 705.2 359.65"/><polygon class="cls-36" points="732.16 359.57 708.28 359.64 707.54 356.58 731.41 356.5 732.16 359.57"/><polygon class="cls-36" points="763.93 359.47 736.56 359.56 735.82 356.49 763.18 356.41 763.93 359.47"/><polygon class="cls-36" points="722.58 368.41 688.86 368.51 688.11 365.45 721.84 365.34 722.58 368.41"/><polygon class="cls-36" points="740.37 368.35 727.69 368.39 726.94 365.33 739.62 365.29 740.37 368.35"/><polygon class="cls-36" points="766.08 368.27 743.66 368.34 742.91 365.28 765.33 365.21 766.08 368.27"/><polygon class="cls-36" points="709.23 376.2 690.74 376.26 690 373.19 708.49 373.14 709.23 376.2"/><polygon class="cls-36" points="736.19 376.12 712.32 376.19 711.57 373.13 735.45 373.05 736.19 376.12"/><polygon class="cls-36" points="767.96 376.02 740.6 376.1 739.85 373.04 767.22 372.95 767.96 376.02"/><polygon class="cls-8" points="696.13 296.86 675.82 296.92 675.37 295.08 695.68 295.01 696.13 296.86"/><polygon class="cls-8" points="706.85 296.82 699.21 296.85 698.76 295 706.39 294.98 706.85 296.82"/><polygon class="cls-8" points="722.33 296.78 708.83 296.82 708.38 294.97 721.88 294.93 722.33 296.78"/><polygon class="cls-8" points="688.1 301.55 676.96 301.58 676.51 299.74 687.64 299.71 688.1 301.55"/><polygon class="cls-8" points="704.33 301.5 689.95 301.55 689.5 299.7 703.88 299.66 704.33 301.5"/><polygon class="cls-8" points="723.46 301.44 706.98 301.49 706.53 299.65 723.01 299.6 723.46 301.44"/><polygon class="cls-8" points="698.56 306.82 678.25 306.89 677.8 305.04 698.11 304.98 698.56 306.82"/><polygon class="cls-8" points="709.27 306.79 701.64 306.81 701.19 304.97 708.82 304.94 709.27 306.79"/><polygon class="cls-8" points="724.75 306.74 711.26 306.78 710.81 304.94 724.3 304.9 724.75 306.74"/><polygon class="cls-8" points="690.52 311.51 679.39 311.55 678.94 309.7 690.07 309.67 690.52 311.51"/><polygon class="cls-8" points="706.76 311.46 692.38 311.51 691.93 309.67 706.31 309.62 706.76 311.46"/><polygon class="cls-8" points="725.89 311.41 709.41 311.46 708.96 309.61 725.44 309.56 725.89 311.41"/><polygon class="cls-36" points="729.48 396.68 695.75 396.79 695 393.72 728.73 393.62 729.48 396.68"/><polygon class="cls-36" points="747.26 396.63 734.58 396.67 733.83 393.6 746.51 393.56 747.26 396.63"/><polygon class="cls-36" points="772.97 396.55 750.55 396.62 749.81 393.55 772.22 393.48 772.97 396.55"/><polygon class="cls-36" points="716.13 404.47 697.63 404.53 696.89 401.47 715.38 401.41 716.13 404.47"/><polygon class="cls-36" points="743.09 404.39 719.21 404.46 718.46 401.4 742.34 401.33 743.09 404.39"/><polygon class="cls-36" points="774.86 404.29 747.49 404.38 746.74 401.31 774.11 401.23 774.86 404.29"/><polygon class="cls-36" points="736.23 424.39 702.5 424.5 701.75 421.43 735.48 421.33 736.23 424.39"/><polygon class="cls-36" points="754.02 424.34 741.33 424.38 740.59 421.31 753.27 421.27 754.02 424.34"/><polygon class="cls-36" points="779.72 424.26 757.31 424.33 756.56 421.26 778.98 421.2 779.72 424.26"/><polygon class="cls-36" points="722.88 432.19 704.39 432.24 703.64 429.18 722.13 429.12 722.88 432.19"/><polygon class="cls-36" points="749.84 432.1 725.96 432.18 725.22 429.11 749.1 429.04 749.84 432.1"/><polygon class="cls-36" points="781.61 432 754.24 432.09 753.5 429.02 780.86 428.94 781.61 432"/><polygon class="cls-36" points="742.31 449.36 708.59 449.46 707.84 446.4 741.57 446.3 742.31 449.36"/><polygon class="cls-36" points="760.1 449.31 747.42 449.34 746.67 446.28 759.36 446.24 760.1 449.31"/><polygon class="cls-36" points="785.81 449.23 763.39 449.3 762.65 446.23 785.06 446.16 785.81 449.23"/><polygon class="cls-36" points="728.97 457.15 710.48 457.21 709.73 454.15 728.22 454.09 728.97 457.15"/><polygon class="cls-36" points="755.93 457.07 732.05 457.14 731.3 454.08 755.18 454.01 755.93 457.07"/><polygon class="cls-36" points="787.7 456.97 760.33 457.06 759.58 453.99 786.95 453.91 787.7 456.97"/><path class="cls-38" d="M1138.56,698c-5.42,0-11.12-4.41-12.7-9.83s1.54-9.83,7-9.83,11.11,4.41,12.7,9.83S1144,698,1138.56,698Zm-5.22-17.86c-4.43,0-7,3.6-5.69,8s5.95,8,10.38,8,7-3.61,5.69-8S1137.77,680.16,1133.34,680.16Z" transform="translate(-380.35 -211.53)"/><path class="cls-38" d="M1137,693.19a2,2,0,0,1-1.1-.46l-5.52-4.41a1.63,1.63,0,0,1-.57-2.12,1.51,1.51,0,0,1,2.13,0l3.9,3.12,2-4.62c.29-.67,1.18-.81,2-.33a1.81,1.81,0,0,1,.94,2.09l-2.63,6.07a1,1,0,0,1-.93.61Z" transform="translate(-380.35 -211.53)"/><path class="cls-29" d="M1165.69,698c-5.42,0-11.12-4.41-12.7-9.83s1.54-9.83,7-9.83,11.12,4.41,12.7,9.83S1171.11,698,1165.69,698Zm-5.21-17.86c-4.43,0-7,3.6-5.69,8s6,8,10.38,8,7-3.61,5.69-8S1164.91,680.16,1160.48,680.16Z" transform="translate(-380.35 -211.53)"/><path class="cls-29" d="M1163.29,689.8h0a2,2,0,0,1-1.79-1.39l-1.22-4.18a1,1,0,0,1,1-1.39h0a2,2,0,0,1,1.8,1.39l1.22,4.18A1,1,0,0,1,1163.29,689.8Z" transform="translate(-380.35 -211.53)"/><path class="cls-29" d="M1164.4,693.08h-.3a1.8,1.8,0,0,1-1.6-1.24h0a.9.9,0,0,1,.87-1.24h.3a1.8,1.8,0,0,1,1.61,1.24h0A.9.9,0,0,1,1164.4,693.08Z" transform="translate(-380.35 -211.53)"/><path class="cls-38" d="M1108.32,544.32a7.77,7.77,0,0,1-7-5.38c-.87-3,.84-5.39,3.81-5.39a7.79,7.79,0,0,1,7,5.39C1113,541.91,1111.29,544.32,1108.32,544.32Zm-2.86-9.79c-2.43,0-3.83,2-3.12,4.41a6.37,6.37,0,0,0,5.69,4.4c2.43,0,3.83-2,3.12-4.4A6.36,6.36,0,0,0,1105.46,534.53Z" transform="translate(-380.35 -211.53)"/><path class="cls-38" d="M1107.44,541.68a1.24,1.24,0,0,1-.61-.25l-3-2.43a.88.88,0,0,1-.31-1.16.82.82,0,0,1,1.16,0l2.14,1.71,1.1-2.53c.15-.37.64-.45,1.09-.18a1,1,0,0,1,.51,1.14l-1.44,3.33a.57.57,0,0,1-.5.34Z" transform="translate(-380.35 -211.53)"/><path class="cls-38" d="M1092.9,544.32a7.77,7.77,0,0,1-7-5.38c-.87-3,.84-5.39,3.81-5.39a7.79,7.79,0,0,1,7,5.39C1097.58,541.91,1095.87,544.32,1092.9,544.32Zm-2.86-9.79c-2.43,0-3.83,2-3.12,4.41a6.37,6.37,0,0,0,5.69,4.4c2.43,0,3.83-2,3.12-4.4A6.36,6.36,0,0,0,1090,534.53Z" transform="translate(-380.35 -211.53)"/><path class="cls-38" d="M1092,541.68a1.24,1.24,0,0,1-.61-.25l-3-2.43a.88.88,0,0,1-.31-1.16.82.82,0,0,1,1.16,0l2.14,1.71,1.1-2.53c.15-.37.64-.45,1.09-.18a1,1,0,0,1,.51,1.14l-1.44,3.33a.57.57,0,0,1-.51.34Z" transform="translate(-380.35 -211.53)"/><path class="cls-38" d="M1076.93,544.32a7.78,7.78,0,0,1-7-5.38c-.86-3,.85-5.39,3.82-5.39a7.77,7.77,0,0,1,7,5.39C1081.61,541.91,1079.9,544.32,1076.93,544.32Zm-2.86-9.79c-2.43,0-3.83,2-3.12,4.41a6.37,6.37,0,0,0,5.69,4.4c2.43,0,3.83-2,3.12-4.4A6.36,6.36,0,0,0,1074.07,534.53Z" transform="translate(-380.35 -211.53)"/><path class="cls-38" d="M1076,541.68a1.21,1.21,0,0,1-.6-.25l-3-2.43a.89.89,0,0,1-.32-1.16.83.83,0,0,1,1.17,0l2.14,1.71,1.09-2.53c.16-.37.65-.45,1.09-.18a1,1,0,0,1,.52,1.14l-1.44,3.33a.57.57,0,0,1-.51.34Z" transform="translate(-380.35 -211.53)"/><path class="cls-29" d="M1123.2,544.32a7.79,7.79,0,0,1-7-5.38c-.86-3,.85-5.39,3.82-5.39a7.76,7.76,0,0,1,7,5.39C1127.88,541.91,1126.17,544.32,1123.2,544.32Zm-2.86-9.79c-2.43,0-3.83,2-3.12,4.41a6.37,6.37,0,0,0,5.69,4.4c2.43,0,3.83-2,3.12-4.4A6.36,6.36,0,0,0,1120.34,534.53Z" transform="translate(-380.35 -211.53)"/><path class="cls-29" d="M1121.88,539.82h0a1.1,1.1,0,0,1-1-.77l-.67-2.28a.56.56,0,0,1,.54-.77h0a1.1,1.1,0,0,1,1,.77l.67,2.28A.56.56,0,0,1,1121.88,539.82Z" transform="translate(-380.35 -211.53)"/><path class="cls-29" d="M1122.49,541.61h-.17a1,1,0,0,1-.88-.68h0a.5.5,0,0,1,.49-.68h.16a1,1,0,0,1,.88.68h0A.49.49,0,0,1,1122.49,541.61Z" transform="translate(-380.35 -211.53)"/><polygon class="cls-8" points="858.2 301.3 544.82 301.3 520.8 222.65 834.19 222.65 858.2 301.3"/><path class="cls-39" d="M1202.61,460.77l2.87,9.41c1.27,4.14-1.08,7.52-5.22,7.52H940.62c-4.14,0-8.56-3.38-9.82-7.52l-2.88-9.41c-1.26-4.14,1.09-7.53,5.23-7.53h259.64C1196.93,453.24,1201.35,456.63,1202.61,460.77Z" transform="translate(-380.35 -211.53)"/><path class="cls-37" d="M1150.62,462.73h-4l-.38-1.22h5.57l.32,1.05-1.48,6.87h-1.56Z" transform="translate(-380.35 -211.53)"/><path class="cls-37" d="M1154,465.47c-.69-2.26.13-4.09,2.21-4.09s4,1.81,4.69,4.09-.13,4.1-2.21,4.1S1154.72,467.76,1154,465.47Zm5.46,0c-.47-1.56-1.67-2.84-2.89-2.84s-1.62,1.25-1.13,2.84,1.65,2.84,2.89,2.84S1160,467.06,1159.48,465.47Z" transform="translate(-380.35 -211.53)"/><path class="cls-37" d="M1161.5,463.45c-.34-1.1.13-2,1.25-2a2.79,2.79,0,0,1,2.48,2c.33,1.09-.14,2-1.26,2A2.76,2.76,0,0,1,1161.5,463.45Zm6-1.94h1.12l-3.37,7.92h-1.12Zm-3.28,1.94a1.5,1.5,0,0,0-1.22-1.16c-.53,0-.69.52-.5,1.16a1.51,1.51,0,0,0,1.23,1.15C1164.26,464.6,1164.42,464.08,1164.22,463.45Zm3.3,4.05c-.34-1.1.14-2,1.26-2a2.78,2.78,0,0,1,2.47,2c.34,1.1-.14,2-1.26,2A2.77,2.77,0,0,1,1167.52,467.5Zm2.73,0a1.52,1.52,0,0,0-1.23-1.16c-.53,0-.69.52-.49,1.16a1.49,1.49,0,0,0,1.22,1.15C1170.28,468.65,1170.44,468.13,1170.25,467.5Z" transform="translate(-380.35 -211.53)"/><path class="cls-28" d="M1135.73,452.37l7.47,24.46H967.63a11,11,0,0,1-8.93-5.52,9.13,9.13,0,0,1-.89-2l-2.87-9.41c-1.27-4.14,1.09-7.53,5.23-7.53Z" transform="translate(-380.35 -211.53)"/><path class="cls-40" d="M991.24,452.37l-7.4,24.46H967.63a11,11,0,0,1-8.93-5.52l5.72-18.94Z" transform="translate(-380.35 -211.53)"/><polygon class="cls-40" points="656.83 240.84 649.43 265.3 622.62 265.3 630.02 240.84 656.83 240.84"/><polygon class="cls-40" points="702.78 240.84 695.38 265.3 668.57 265.3 675.97 240.84 702.78 240.84"/><polygon class="cls-40" points="748.74 240.84 741.33 265.3 714.52 265.3 721.92 240.84 748.74 240.84"/><polygon class="cls-32" points="607.88 280.66 561 280.66 560.01 277.43 606.9 277.43 607.88 280.66"/><polygon class="cls-32" points="597.83 289.71 563.76 289.71 562.77 286.47 596.84 286.47 597.83 289.71"/><polygon class="cls-32" points="620.29 289.71 599.93 289.71 598.94 286.47 619.31 286.47 620.29 289.71"/><polygon class="cls-32" points="654.93 289.71 623.82 289.71 622.83 286.47 653.94 286.47 654.93 289.71"/><polygon class="cls-32" points="625.61 280.66 611.41 280.66 610.42 277.43 624.62 277.43 625.61 280.66"/><polygon class="cls-32" points="682.1 280.66 630.47 280.66 629.48 277.43 681.11 277.43 682.1 280.66"/><path class="cls-41" d="M1084.25,885.46s.74-5.72,2.44-9.12,12.51-1.24,12.51-1.24,2.17,1.86,2.63,10.51Z" transform="translate(-380.35 -211.53)"/><path class="cls-41" d="M1047.39,885.38c2.54-1.55,1.1-13.13,1.1-13.13s-11.85-9.47-13.48-2.22-11.25,10.51-16.73,11.4c-3.78.62-4.95,2.71-5.31,4Z" transform="translate(-380.35 -211.53)"/><path class="cls-42" d="M1071.93,801.19a55.09,55.09,0,0,0-.87,6.4c-1.1,21.48-18.08,70.59-21.12,71.73-4.7,1.78-12.1-2-16-3.23a3.32,3.32,0,0,1-2.33-3.77c8.41-38.65,11.5-94.32,12.62-127.27a149.65,149.65,0,0,1,3.42-28.07s41.41-11.05,41.66,2.93C1089.56,732.28,1075.62,780.79,1071.93,801.19Z" transform="translate(-380.35 -211.53)"/><path class="cls-41" d="M1071.93,801.19l-27.67-56.14a149.65,149.65,0,0,1,3.42-28.07s41.41-11.05,41.66,2.93C1089.56,732.28,1075.62,780.79,1071.93,801.19Z" transform="translate(-380.35 -211.53)"/><path class="cls-42" d="M1062.71,720l21.9,158.67s9.61,2.32,17.09.46c0,0,6.41-84.38,5.87-104.79s4.6-54.59-1.17-58.36S1062.71,720,1062.71,720Z" transform="translate(-380.35 -211.53)"/><path class="cls-15" d="M1107.94,679.22l2.73,38.1a3.05,3.05,0,0,1-2.19,3.14c-3.06.88-6.58,1.5-13.37,2.91a130.44,130.44,0,0,1-25.5,2.56c-16.77.1-23.12-5.68-23.12-5.68-.72,0,.38-3.49,1.38-20.18.33-5.65.66-12.82.89-21.87.21-8.15.36-17.83.37-29.32,0-13.81,21.4-28.67,21.8-28.67h0c0,2,3.14,5.66,8,6,5.73.37,12.77-2.48,12.77-5.78,0,0,10.36,16.57,14,34.27.46,2.24.82,4.61,1.11,7.1,0,0,0,.08,0,.11l.15,1.38a1.94,1.94,0,0,0,0,.24l.12,1.27,0,.37c0,.39.07.77.1,1.17a.34.34,0,0,1,0,.1c0,.3,0,.59.07.89s0,.42.05.62c0,.35,0,.69.07,1l0,.53.06,1,0,.44c0,.48,0,1,.08,1.46v.12c0,.47,0,.94.07,1.42,0,.12,0,.24,0,.35l.06,1.36a1.34,1.34,0,0,0,0,.2c0,1.11.09,2.23.13,3.37v0Z" transform="translate(-380.35 -211.53)"/><path class="cls-15" d="M1070.93,620.21s-19.89-.17-24.67,6.54-15.28,42.82-9.81,54.83,15.72-5,21.41-12.33S1070.93,620.21,1070.93,620.21Z" transform="translate(-380.35 -211.53)"/><path class="cls-23" d="M1070.72,617.17v2.06s-.56,6.43,7.36,7.37,13.91-2.51,13.7-7.47c-.72-3.84-1.5-6.48-1.55-9.66a22.36,22.36,0,0,1,.28-3.85l-15.34-.3-4.52.73Z" transform="translate(-380.35 -211.53)"/><path class="cls-43" d="M1070.66,606.05l.06,11.12a13,13,0,0,0,5.53,1.22c7,0,11.61-5.17,14-8.92a22.36,22.36,0,0,1,.28-3.85l-15.34-.3Z" transform="translate(-380.35 -211.53)"/><path class="cls-23" d="M1091.7,603.15c-1.78,9.58-14.14,9.27-19.48,8.67-1.51-.17-2.45-.36-2.45-.36-1.7-.46-2.64-3.13-3.08-6.62-.87-6.92.23-17.08,1.4-19.68,1.76-3.91,5.07-8.13,17.52-5.08S1094,590.88,1091.7,603.15Z" transform="translate(-380.35 -211.53)"/><path class="cls-41" d="M1050.59,647.11s-7.69,17-7.46,22.08a26.53,26.53,0,0,1,7.46,1C1056.6,671.94,1050.59,647.11,1050.59,647.11Z" transform="translate(-380.35 -211.53)"/><path class="cls-41" d="M1064.27,576.05a41.51,41.51,0,0,0,11.94-3.23c5.24-2.28,11.86.23,14,1.36a3.17,3.17,0,0,0-.53-1.29,2.86,2.86,0,0,1,1.11,1.64c.1.07.14.12.12.14a3.72,3.72,0,0,1,1.79.11s-.49-.07-.67.25a.18.18,0,0,1-.07.08c8.18,4,8.93,16.89,6.3,19.88-3.17,3.6-7,11.7-7,11.7a6.94,6.94,0,0,1-.8-5.08c.57-3.17-2.16-3.17-5.62-4.61s-.58-5.47-3.6-7.91-14.11-1-14-2.88C1063.2,584.71,1064.27,576.47,1064.27,576.05Z" transform="translate(-380.35 -211.53)"/><path class="cls-41" d="M1094.2,678.93c-3.24,13-38.35,19.77-46.33,21.14.33-5.65.66-12.82.89-21.87Z" transform="translate(-380.35 -211.53)"/><path class="cls-23" d="M1086.5,683.17c.33,0,7.8-1.12,9.14-1.79s7.46-9.36,3.45-11.59-14.77,6.69-14.77,6.69Z" transform="translate(-380.35 -211.53)"/><path class="cls-15" d="M1041.06,685.75s28.89,1.57,48.28-2.58a8.33,8.33,0,0,0-5.6-8.09s-30.22-6.41-37.48-4.63S1041.06,685.75,1041.06,685.75Z" transform="translate(-380.35 -211.53)"/><path class="cls-15" d="M1107.41,663.08c-6,7.23-13.83,13.13-22.48,14.51h0a16.18,16.18,0,0,1-2.14-9.65,19.31,19.31,0,0,1,3.15-8.86,19.82,19.82,0,0,0,1.7-3.42c4.72-12,4-35.25,4-35.25s20,2.1,26.28,11C1121.76,636.89,1116.89,651.64,1107.41,663.08Z" transform="translate(-380.35 -211.53)"/><path class="cls-43" d="M1072.22,611.82c-1.51-.17-2.45-.36-2.45-.36-1.7-.46-2.64-3.13-3.08-6.62a8.38,8.38,0,0,1,5.24,4.28A6.28,6.28,0,0,1,1072.22,611.82Z" transform="translate(-380.35 -211.53)"/><path class="cls-23" d="M1064.14,617.23s-6.92-11.42-1.54-11.91a8.14,8.14,0,0,1,8.33,4.48c.77,1.34-.21,7.37-.21,7.37Z" transform="translate(-380.35 -211.53)"/><path class="cls-15" d="M1090.52,667.56a14.74,14.74,0,0,1-1.18,4,19,19,0,0,1-4.41,6.07h0c-18-8.11-21.61-36-22.22-51.28-.24-6.15,0-10.28,0-10.28,8.11-2.68,10.39,2,10.39,2s9.57,22.77,14.54,37.65C1089.54,661.35,1090.76,665.89,1090.52,667.56Z" transform="translate(-380.35 -211.53)"/><path class="cls-41" d="M1107.41,663.08c-6,7.23-13.83,13.13-22.48,14.51h0c-18-8.11-21.61-36-22.22-51.28,0,0,8.51,30.85,20.08,41.63a12.7,12.7,0,0,0,6.55,3.58s14.6-4.12,17.66-8C1107.22,663.23,1107.35,663.09,1107.41,663.08Z" transform="translate(-380.35 -211.53)"/><path class="cls-21" d="M1316.23,570s27.88,28.91,29.2,39.8-13.36,27.86-13.36,27.86Z" transform="translate(-380.35 -211.53)"/><path class="cls-12" d="M1303.63,869.66s-1,15.33-4,15.55c-.4,0-15,0-15,0l-18.71-.15s.13-4.5,5.6-5.44,14.63-4.77,18-12C1293,860,1303.63,869.66,1303.63,869.66Z" transform="translate(-380.35 -211.53)"/><path class="cls-12" d="M1345.3,869.75s-1,15.33-4,15.55c-.4,0-15,0-15,0l-18.71-.14s.13-4.51,5.6-5.45,14.63-4.77,18-12C1334.65,860.12,1345.3,869.75,1345.3,869.75Z" transform="translate(-380.35 -211.53)"/><path class="cls-12" d="M1283.27,704.78s4.82,31.3,23,86.89,20.57,79.66,20.57,79.66l19.58-.51s.3-60.71-8-88.66-1.59-100.72-1.59-100.72Z" transform="translate(-380.35 -211.53)"/><path class="cls-16" d="M1273.79,683A759.38,759.38,0,0,0,1281,788.1c8,57.92,5.22,82.49,5.22,82.49l19.54.69s11.8-57.9,8.52-86.89S1330.51,685,1330.51,685Z" transform="translate(-380.35 -211.53)"/><path class="cls-23" d="M1311.86,572.75l-10.43,6.8-15-2.83c.21-1.22,1.21-6.25,2.13-10.81,0-.27.11-.54.16-.8.78-3.88,1.46-7.21,1.46-7.21l14.07-6.17,5.24-2.3c0,.08-.41,4.31-.47,4.92A35.77,35.77,0,0,0,1311.86,572.75Z" transform="translate(-380.35 -211.53)"/><path class="cls-21" d="M1290.26,569.26c.29-.12,18.13-5.35,20.07-4.7s3.07,4.39,3.07,4.39l-29.18,6.53S1286.53,570.82,1290.26,569.26Z" transform="translate(-380.35 -211.53)"/><path class="cls-44" d="M1338,689c-3.06,13.78-53.35,15.31-66.29,2.77-1.47-1.43-1.53-8.07-1-17,1.12-17.48,4.67-43.76,4.84-57.2a106.29,106.29,0,0,1,2.18-19.14,156.29,156.29,0,0,1,6.43-22.91s24.59-7.89,29.18-6.53C1335.53,575.5,1341.06,675.2,1338,689Z" transform="translate(-380.35 -211.53)"/><path class="cls-21" d="M1270.77,674.73c1.12-17.48,4.67-43.76,4.84-57.2a106.29,106.29,0,0,1,2.18-19.14l14.79-2.58S1306.9,654.85,1270.77,674.73Z" transform="translate(-380.35 -211.53)"/><path class="cls-23" d="M1278.82,650.38a3.49,3.49,0,0,1-1.12,4c-2.12,1.61-3.49,4.22-3,6.14s5.11,5.05,6.72,4.55,4.89-3,4.54-4,2.22-8.85-1.69-11.88S1278.82,650.38,1278.82,650.38Z" transform="translate(-380.35 -211.53)"/><path class="cls-44" d="M1295.51,572s-14.41,2.66-25.93,19.56-19.1,29.46-17,35.56,21.34,27.3,24.66,27.31,8.69-2.4,9-7.84c0,0-13.53-20.37-10.85-23.41,1.14-1.3,17.65-14.65,20-8.6C1299.26,624.56,1295.51,572,1295.51,572Z" transform="translate(-380.35 -211.53)"/><path class="cls-45" d="M1307.92,554.54c-3.09,5.22-14.6,9.72-19.4,11.37,0-.27.11-.54.16-.8.78-3.88,1.46-7.21,1.46-7.21l14.07-6.17C1307.31,551.69,1309.2,552.39,1307.92,554.54Z" transform="translate(-380.35 -211.53)"/><path class="cls-23" d="M1284.84,557s22.63,7.12,26.84-7,10-22.77-4.3-27.91-18.69-.58-21.25,3.8S1279.07,554.82,1284.84,557Z" transform="translate(-380.35 -211.53)"/><path class="cls-12" d="M1287,524.52s1.41,16.49,4.82,15.78,6.51-1.23,6,3.74-5.25,10.69,5.25,11.59,25.67-26.16,22.79-31.29C1317.59,509.52,1275,506.44,1287,524.52Z" transform="translate(-380.35 -211.53)"/><polygon class="cls-46" points="472.79 361.78 348.51 361.78 329.19 298.52 453.47 298.52 472.79 361.78"/><polygon class="cls-14" points="455.25 330.15 346.73 330.15 338.52 303.27 447.04 303.27 455.25 330.15"/><polygon class="cls-34" points="364.57 308.73 346.19 308.73 345.75 307.3 364.14 307.3 364.57 308.73"/><polygon class="cls-34" points="384.24 308.73 368.95 308.73 368.51 307.3 383.8 307.3 384.24 308.73"/><polygon class="cls-34" points="419.82 308.73 388.22 308.73 387.78 307.3 419.38 307.3 419.82 308.73"/><polygon class="cls-34" points="366.14 313.87 347.76 313.87 347.32 312.44 365.7 312.44 366.14 313.87"/><polygon class="cls-34" points="385.8 313.87 370.52 313.87 370.08 312.44 385.37 312.44 385.8 313.87"/><polygon class="cls-34" points="403.86 313.87 388.57 313.87 388.13 312.44 403.42 312.44 403.86 313.87"/><polygon class="cls-34" points="440.09 314.47 408.49 314.47 408.05 313.03 439.65 313.03 440.09 314.47"/><polygon class="cls-34" points="368.13 320.38 349.75 320.38 349.31 318.95 367.69 318.95 368.13 320.38"/><polygon class="cls-34" points="387.79 320.38 372.51 320.38 372.07 318.95 387.36 318.95 387.79 320.38"/><polygon class="cls-34" points="423.37 320.38 391.78 320.38 391.34 318.95 422.94 318.95 423.37 320.38"/><polygon class="cls-34" points="369.7 325.52 351.32 325.52 350.88 324.09 369.26 324.09 369.7 325.52"/><polygon class="cls-34" points="389.36 325.52 374.08 325.52 373.64 324.09 388.93 324.09 389.36 325.52"/><polygon class="cls-34" points="407.42 325.52 392.13 325.52 391.69 324.09 406.98 324.09 407.42 325.52"/><polygon class="cls-34" points="443.65 326.12 412.05 326.12 411.61 324.69 443.21 324.69 443.65 326.12"/><path class="cls-38" d="M799.85,564c-4.22,0-8.69-3.43-10-7.64s1.09-7.64,5.3-7.64,8.69,3.43,10,7.64S804.06,564,799.85,564Zm-4.24-13.88c-3.45,0-5.39,2.8-4.34,6.24a9.19,9.19,0,0,0,8.15,6.25c3.44,0,5.39-2.81,4.34-6.25A9.18,9.18,0,0,0,795.61,550.07Z" transform="translate(-380.35 -211.53)"/><path class="cls-38" d="M798.55,560.2a1.64,1.64,0,0,1-.87-.36l-4.33-3.43a1.26,1.26,0,0,1-.46-1.64,1.16,1.16,0,0,1,1.65,0l3.06,2.43,1.51-3.59c.22-.52.91-.64,1.54-.26a1.43,1.43,0,0,1,.76,1.62l-2,4.72a.82.82,0,0,1-.72.48Z" transform="translate(-380.35 -211.53)"/><path class="cls-38" d="M778,564c-4.21,0-8.69-3.43-10-7.64s1.09-7.64,5.3-7.64,8.69,3.43,10,7.64S782.2,564,778,564Zm-4.24-13.88c-3.44,0-5.39,2.8-4.34,6.24a9.19,9.19,0,0,0,8.15,6.25c3.45,0,5.39-2.81,4.34-6.25A9.18,9.18,0,0,0,773.75,550.07Z" transform="translate(-380.35 -211.53)"/><path class="cls-38" d="M776.69,560.2a1.58,1.58,0,0,1-.86-.36l-4.33-3.43a1.26,1.26,0,0,1-.47-1.64,1.17,1.17,0,0,1,1.66,0l3.06,2.43,1.5-3.59c.22-.52.91-.64,1.54-.26a1.42,1.42,0,0,1,.76,1.62l-2,4.72a.81.81,0,0,1-.71.48Z" transform="translate(-380.35 -211.53)"/><path class="cls-38" d="M755.35,564c-4.21,0-8.68-3.43-10-7.64s1.09-7.64,5.3-7.64,8.69,3.43,10,7.64S759.56,564,755.35,564Zm-4.24-13.88c-3.44,0-5.39,2.8-4.34,6.24a9.2,9.2,0,0,0,8.15,6.25c3.45,0,5.39-2.81,4.34-6.25A9.18,9.18,0,0,0,751.11,550.07Z" transform="translate(-380.35 -211.53)"/><path class="cls-38" d="M754.05,560.2a1.58,1.58,0,0,1-.86-.36l-4.33-3.43a1.26,1.26,0,0,1-.47-1.64,1.17,1.17,0,0,1,1.66,0l3.06,2.43,1.5-3.59c.22-.52.91-.64,1.54-.26a1.42,1.42,0,0,1,.76,1.62l-2,4.72a.8.8,0,0,1-.71.48Z" transform="translate(-380.35 -211.53)"/><path class="cls-29" d="M820.93,564c-4.21,0-8.68-3.43-10-7.64s1.1-7.64,5.31-7.64,8.68,3.43,10,7.64S825.15,564,820.93,564Zm-4.24-13.88c-3.44,0-5.38,2.8-4.33,6.24a9.18,9.18,0,0,0,8.15,6.25c3.44,0,5.39-2.81,4.33-6.25A9.17,9.17,0,0,0,816.69,550.07Z" transform="translate(-380.35 -211.53)"/><path class="cls-29" d="M819,557.56h0a1.58,1.58,0,0,1-1.41-1.08l-1-3.24a.77.77,0,0,1,.75-1.08h0a1.57,1.57,0,0,1,1.41,1.08l1,3.24A.77.77,0,0,1,819,557.56Z" transform="translate(-380.35 -211.53)"/><path class="cls-29" d="M819.88,560.11h-.24a1.4,1.4,0,0,1-1.25-1h0a.69.69,0,0,1,.67-1h.23a1.44,1.44,0,0,1,1.26,1h0A.69.69,0,0,1,819.88,560.11Z" transform="translate(-380.35 -211.53)"/></g></g></svg>